STARTFONT 2.1
FONT -DEC-David-Bold-O-Normal--10-100-75-75-P-57-ISO8859-8
SIZE 10 75 75
FONTBOUNDINGBOX 11 11 0 -3

STARTPROPERTIES 26
FONTNAME_REGISTRY ""
FAMILY_NAME "David"
FOUNDRY "DEC"
WEIGHT_NAME "Bold"
SETWIDTH_NAME "Normal"
SLANT "O"
ADD_STYLE_NAME ""
PIXEL_SIZE 10
RESOLUTION_X 75
RESOLUTION_Y 75
SPACING "P"
AVERAGE_WIDTH 57
CHARSET_REGISTRY "ISO8859"
CHARSET_ENCODING "8"
CHARSET_COLLECTIONS "ASCII ISO8859-8 "
FULL_NAME "David Bold Oblique"
COPYRIGHT "Digital Israel"
CAP_HEIGHT 7
X_HEIGHT 5
_DEC_DEVICE_FONTNAMES "PS=David-BoldOblique-ISOLatinHebrew"
QUAD_WIDTH 5
POINT_SIZE 100
WEIGHT 10
DEFAULT_CHAR 0
FONT_DESCENT 3
FONT_ASCENT 9
ENDPROPERTIES

CHARS 152

STARTCHAR space
ENCODING 32
SWIDTH 192 0
DWIDTH 2 0
BBX 1 1 0 0
BITMAP
00
ENDCHAR

STARTCHAR exclam
ENCODING 33
SWIDTH 576 0
DWIDTH 6 0
BBX 4 7 1 0
BITMAP
30
30
60
40
00
C0
C0
ENDCHAR

STARTCHAR quotedbl
ENCODING 34
SWIDTH 576 0
DWIDTH 6 0
BBX 3 3 2 4
BITMAP
A0
A0
A0
ENDCHAR

STARTCHAR numbersign
ENCODING 35
SWIDTH 768 0
DWIDTH 8 0
BBX 7 7 1 0
BITMAP
14
14
7E
28
FC
50
50
ENDCHAR

STARTCHAR dollar
ENCODING 36
SWIDTH 480 0
DWIDTH 5 0
BBX 4 7 1 0
BITMAP
20
70
D0
60
B0
E0
40
ENDCHAR

STARTCHAR percent
ENCODING 37
SWIDTH 1056 0
DWIDTH 11 0
BBX 10 7 1 0
BITMAP
6600
DE00
D400
6D80
1B40
3340
3180
ENDCHAR

STARTCHAR ampersand
ENCODING 38
SWIDTH 768 0
DWIDTH 8 0
BBX 8 7 0 0
BITMAP
1C
34
38
77
DA
CC
76
ENDCHAR

STARTCHAR quoteright
ENCODING 39
SWIDTH 384 0
DWIDTH 4 0
BBX 2 3 2 4
BITMAP
C0
40
80
ENDCHAR

STARTCHAR parenleft
ENCODING 40
SWIDTH 576 0
DWIDTH 6 0
BBX 5 9 1 -2
BITMAP
08
30
60
C0
C0
C0
C0
60
20
ENDCHAR

STARTCHAR parenright
ENCODING 41
SWIDTH 576 0
DWIDTH 6 0
BBX 5 9 0 -2
BITMAP
20
30
18
18
18
18
30
60
80
ENDCHAR

STARTCHAR asterisk
ENCODING 42
SWIDTH 672 0
DWIDTH 7 0
BBX 5 5 1 3
BITMAP
20
A8
70
A8
20
ENDCHAR

STARTCHAR plus
ENCODING 43
SWIDTH 672 0
DWIDTH 7 0
BBX 5 5 1 0
BITMAP
20
20
F8
20
20
ENDCHAR

STARTCHAR comma
ENCODING 44
SWIDTH 384 0
DWIDTH 4 0
BBX 3 3 0 -1
BITMAP
60
60
C0
ENDCHAR

STARTCHAR minus
ENCODING 45
SWIDTH 672 0
DWIDTH 7 0
BBX 5 1 1 2
BITMAP
F8
ENDCHAR

STARTCHAR period
ENCODING 46
SWIDTH 384 0
DWIDTH 4 0
BBX 2 2 1 0
BITMAP
C0
C0
ENDCHAR

STARTCHAR slash
ENCODING 47
SWIDTH 480 0
DWIDTH 5 0
BBX 5 7 0 0
BITMAP
18
10
30
20
60
40
C0
ENDCHAR

STARTCHAR zero
ENCODING 48
SWIDTH 480 0
DWIDTH 5 0
BBX 5 7 0 0
BITMAP
30
68
C8
D8
98
B0
60
ENDCHAR

STARTCHAR one
ENCODING 49
SWIDTH 480 0
DWIDTH 5 0
BBX 5 7 0 0
BITMAP
38
18
30
30
60
60
F0
ENDCHAR

STARTCHAR two
ENCODING 50
SWIDTH 480 0
DWIDTH 5 0
BBX 5 7 0 0
BITMAP
38
58
18
30
60
E8
F0
ENDCHAR

STARTCHAR three
ENCODING 51
SWIDTH 480 0
DWIDTH 5 0
BBX 5 7 0 0
BITMAP
38
68
18
30
18
B8
F0
ENDCHAR

STARTCHAR four
ENCODING 52
SWIDTH 480 0
DWIDTH 5 0
BBX 5 7 0 0
BITMAP
18
38
58
B0
F8
30
30
ENDCHAR

STARTCHAR five
ENCODING 53
SWIDTH 480 0
DWIDTH 5 0
BBX 5 7 0 0
BITMAP
38
38
60
70
30
B0
E0
ENDCHAR

STARTCHAR six
ENCODING 54
SWIDTH 480 0
DWIDTH 5 0
BBX 5 7 0 0
BITMAP
18
70
60
F0
D0
D0
60
ENDCHAR

STARTCHAR seven
ENCODING 55
SWIDTH 480 0
DWIDTH 5 0
BBX 5 7 0 0
BITMAP
78
78
18
30
60
C0
C0
ENDCHAR

STARTCHAR eight
ENCODING 56
SWIDTH 480 0
DWIDTH 5 0
BBX 5 7 0 0
BITMAP
30
68
78
70
D8
D8
70
ENDCHAR

STARTCHAR nine
ENCODING 57
SWIDTH 480 0
DWIDTH 5 0
BBX 5 7 0 0
BITMAP
30
58
58
78
30
70
C0
ENDCHAR

STARTCHAR colon
ENCODING 58
SWIDTH 288 0
DWIDTH 3 0
BBX 3 5 0 0
BITMAP
60
60
00
C0
C0
ENDCHAR

STARTCHAR semicolon
ENCODING 59
SWIDTH 480 0
DWIDTH 5 0
BBX 4 6 0 -1
BITMAP
30
30
00
60
60
C0
ENDCHAR

STARTCHAR less
ENCODING 60
SWIDTH 576 0
DWIDTH 6 0
BBX 4 5 1 0
BITMAP
30
60
C0
60
30
ENDCHAR

STARTCHAR equal
ENCODING 61
SWIDTH 672 0
DWIDTH 7 0
BBX 5 3 1 1
BITMAP
F8
00
F8
ENDCHAR

STARTCHAR greater
ENCODING 62
SWIDTH 576 0
DWIDTH 6 0
BBX 4 5 1 0
BITMAP
C0
60
30
60
C0
ENDCHAR

STARTCHAR question
ENCODING 63
SWIDTH 480 0
DWIDTH 5 0
BBX 4 7 1 0
BITMAP
F0
B0
60
40
00
C0
C0
ENDCHAR

STARTCHAR at
ENCODING 64
SWIDTH 1056 0
DWIDTH 11 0
BBX 9 9 1 -2
BITMAP
1E00
7300
4D80
DE80
B680
B580
DF00
6000
3E00
ENDCHAR

STARTCHAR A
ENCODING 65
SWIDTH 576 0
DWIDTH 6 0
BBX 7 7 0 0
BITMAP
0C
1C
14
2C
7C
4C
DE
ENDCHAR

STARTCHAR B
ENCODING 66
SWIDTH 672 0
DWIDTH 7 0
BBX 8 7 0 0
BITMAP
3E
1B
33
3C
66
66
FC
ENDCHAR

STARTCHAR C
ENCODING 67
SWIDTH 672 0
DWIDTH 7 0
BBX 7 7 0 0
BITMAP
3E
66
C0
C0
C0
EC
78
ENDCHAR

STARTCHAR D
ENCODING 68
SWIDTH 672 0
DWIDTH 7 0
BBX 8 7 0 0
BITMAP
3E
1B
33
33
67
6E
F8
ENDCHAR

STARTCHAR E
ENCODING 69
SWIDTH 672 0
DWIDTH 7 0
BBX 8 7 0 0
BITMAP
3F
1B
30
3C
60
66
FC
ENDCHAR

STARTCHAR F
ENCODING 70
SWIDTH 672 0
DWIDTH 7 0
BBX 8 7 0 0
BITMAP
3F
1B
30
3C
60
60
F0
ENDCHAR

STARTCHAR G
ENCODING 71
SWIDTH 672 0
DWIDTH 7 0
BBX 7 7 0 0
BITMAP
3E
66
C0
DE
CC
EC
78
ENDCHAR

STARTCHAR H
ENCODING 72
SWIDTH 768 0
DWIDTH 8 0
BBX 8 7 0 0
BITMAP
73
33
66
7E
66
CC
CE
ENDCHAR

STARTCHAR I
ENCODING 73
SWIDTH 384 0
DWIDTH 4 0
BBX 6 7 0 0
BITMAP
3C
18
30
30
60
60
F0
ENDCHAR

STARTCHAR J
ENCODING 74
SWIDTH 480 0
DWIDTH 5 0
BBX 7 8 0 -1
BITMAP
1E
0C
18
18
30
30
B0
E0
ENDCHAR

STARTCHAR K
ENCODING 75
SWIDTH 672 0
DWIDTH 7 0
BBX 9 7 0 0
BITMAP
3B80
1B00
3600
3C00
6C00
6600
F700
ENDCHAR

STARTCHAR L
ENCODING 76
SWIDTH 576 0
DWIDTH 6 0
BBX 6 7 0 0
BITMAP
3C
18
30
30
60
64
FC
ENDCHAR

STARTCHAR M
ENCODING 77
SWIDTH 960 0
DWIDTH 10 0
BBX 11 7 0 0
BITMAP
38E0
19C0
39C0
2A80
6D80
6D80
EBC0
ENDCHAR

STARTCHAR N
ENCODING 78
SWIDTH 768 0
DWIDTH 8 0
BBX 10 7 0 0
BITMAP
3BC0
1980
3D00
2D00
2F00
6600
F600
ENDCHAR

STARTCHAR O
ENCODING 79
SWIDTH 672 0
DWIDTH 7 0
BBX 7 7 0 0
BITMAP
1C
76
66
C6
CC
DC
70
ENDCHAR

STARTCHAR P
ENCODING 80
SWIDTH 576 0
DWIDTH 6 0
BBX 7 7 0 0
BITMAP
3E
1A
36
3C
60
60
F0
ENDCHAR

STARTCHAR Q
ENCODING 81
SWIDTH 672 0
DWIDTH 7 0
BBX 7 9 0 -2
BITMAP
1C
76
66
C6
CC
DC
70
64
F8
ENDCHAR

STARTCHAR R
ENCODING 82
SWIDTH 672 0
DWIDTH 7 0
BBX 8 7 0 0
BITMAP
3E
1B
33
3E
6C
6C
F6
ENDCHAR

STARTCHAR S
ENCODING 83
SWIDTH 576 0
DWIDTH 6 0
BBX 6 7 0 0
BITMAP
3C
6C
60
30
18
D8
F0
ENDCHAR

STARTCHAR T
ENCODING 84
SWIDTH 576 0
DWIDTH 6 0
BBX 7 7 0 0
BITMAP
7E
DA
18
30
30
60
F0
ENDCHAR

STARTCHAR U
ENCODING 85
SWIDTH 768 0
DWIDTH 8 0
BBX 9 7 0 0
BITMAP
7B80
3300
6600
6600
CC00
CC00
7800
ENDCHAR

STARTCHAR V
ENCODING 86
SWIDTH 672 0
DWIDTH 7 0
BBX 8 7 0 0
BITMAP
F7
66
6C
68
68
70
60
ENDCHAR

STARTCHAR W
ENCODING 87
SWIDTH 864 0
DWIDTH 9 0
BBX 10 7 0 0
BITMAP
EDC0
6C80
6D00
6D00
6E00
3600
2400
ENDCHAR

STARTCHAR X
ENCODING 88
SWIDTH 672 0
DWIDTH 7 0
BBX 9 7 0 0
BITMAP
3B80
1B00
1A00
0C00
3C00
6C00
EE00
ENDCHAR

STARTCHAR Y
ENCODING 89
SWIDTH 576 0
DWIDTH 6 0
BBX 8 7 0 0
BITMAP
77
36
34
38
30
60
F0
ENDCHAR

STARTCHAR Z
ENCODING 90
SWIDTH 576 0
DWIDTH 6 0
BBX 8 7 0 0
BITMAP
3F
36
0C
18
30
6C
FC
ENDCHAR

STARTCHAR bracketleft
ENCODING 91
SWIDTH 480 0
DWIDTH 5 0
BBX 5 9 0 -2
BITMAP
38
30
30
60
60
60
C0
C0
E0
ENDCHAR

STARTCHAR backslash
ENCODING 92
SWIDTH 480 0
DWIDTH 5 0
BBX 5 7 0 0
BITMAP
C0
40
60
20
30
10
18
ENDCHAR

STARTCHAR bracketright
ENCODING 93
SWIDTH 480 0
DWIDTH 5 0
BBX 5 9 0 -2
BITMAP
38
18
18
30
30
30
60
60
E0
ENDCHAR

STARTCHAR asciicircum
ENCODING 94
SWIDTH 672 0
DWIDTH 7 0
BBX 5 4 1 3
BITMAP
20
70
D8
88
ENDCHAR

STARTCHAR underscore
ENCODING 95
SWIDTH 480 0
DWIDTH 5 0
BBX 5 1 0 -2
BITMAP
F8
ENDCHAR

STARTCHAR quoteleft
ENCODING 96
SWIDTH 384 0
DWIDTH 4 0
BBX 2 3 1 4
BITMAP
40
80
C0
ENDCHAR

STARTCHAR a
ENCODING 97
SWIDTH 480 0
DWIDTH 5 0
BBX 5 5 0 0
BITMAP
38
68
C8
D0
78
ENDCHAR

STARTCHAR b
ENCODING 98
SWIDTH 480 0
DWIDTH 5 0
BBX 5 7 0 0
BITMAP
70
30
38
68
48
D0
E0
ENDCHAR

STARTCHAR c
ENCODING 99
SWIDTH 480 0
DWIDTH 5 0
BBX 5 5 0 0
BITMAP
30
68
C0
D0
60
ENDCHAR

STARTCHAR d
ENCODING 100
SWIDTH 480 0
DWIDTH 5 0
BBX 6 7 0 0
BITMAP
1C
0C
38
68
C8
D8
68
ENDCHAR

STARTCHAR e
ENCODING 101
SWIDTH 480 0
DWIDTH 5 0
BBX 5 5 0 0
BITMAP
38
48
F0
C8
70
ENDCHAR

STARTCHAR f
ENCODING 102
SWIDTH 384 0
DWIDTH 4 0
BBX 7 10 0 -3
BITMAP
0E
18
3C
10
10
30
30
20
A0
C0
ENDCHAR

STARTCHAR g
ENCODING 103
SWIDTH 384 0
DWIDTH 4 0
BBX 6 8 0 -3
BITMAP
3C
68
68
30
30
D8
98
70
ENDCHAR

STARTCHAR h
ENCODING 104
SWIDTH 480 0
DWIDTH 5 0
BBX 6 7 0 0
BITMAP
70
10
38
6C
4C
48
D8
ENDCHAR

STARTCHAR i
ENCODING 105
SWIDTH 288 0
DWIDTH 3 0
BBX 3 7 0 0
BITMAP
60
00
E0
60
40
C0
C0
ENDCHAR

STARTCHAR j
ENCODING 106
SWIDTH 288 0
DWIDTH 3 0
BBX 5 10 0 -3
BITMAP
18
00
38
18
10
30
30
20
E0
C0
ENDCHAR

STARTCHAR k
ENCODING 107
SWIDTH 480 0
DWIDTH 5 0
BBX 6 7 0 0
BITMAP
70
20
2C
78
70
D0
D8
ENDCHAR

STARTCHAR l
ENCODING 108
SWIDTH 288 0
DWIDTH 3 0
BBX 4 7 0 0
BITMAP
30
30
20
60
40
C0
E0
ENDCHAR

STARTCHAR m
ENCODING 109
SWIDTH 672 0
DWIDTH 7 0
BBX 7 5 0 0
BITMAP
F6
3E
6A
54
D6
ENDCHAR

STARTCHAR n
ENCODING 110
SWIDTH 480 0
DWIDTH 5 0
BBX 5 5 0 0
BITMAP
D8
78
48
D0
D8
ENDCHAR

STARTCHAR o
ENCODING 111
SWIDTH 480 0
DWIDTH 5 0
BBX 5 5 0 0
BITMAP
30
48
D8
90
60
ENDCHAR

STARTCHAR p
ENCODING 112
SWIDTH 480 0
DWIDTH 5 0
BBX 7 8 0 -3
BITMAP
3C
12
36
24
38
20
60
F0
ENDCHAR

STARTCHAR q
ENCODING 113
SWIDTH 480 0
DWIDTH 5 0
BBX 5 8 0 -3
BITMAP
38
68
C8
D0
70
20
60
F0
ENDCHAR

STARTCHAR r
ENCODING 114
SWIDTH 384 0
DWIDTH 4 0
BBX 5 5 0 0
BITMAP
68
70
60
40
C0
ENDCHAR

STARTCHAR s
ENCODING 115
SWIDTH 384 0
DWIDTH 4 0
BBX 4 5 0 0
BITMAP
70
C0
60
30
E0
ENDCHAR

STARTCHAR t
ENCODING 116
SWIDTH 384 0
DWIDTH 4 0
BBX 5 6 0 0
BITMAP
30
F8
60
C0
D0
60
ENDCHAR

STARTCHAR u
ENCODING 117
SWIDTH 480 0
DWIDTH 5 0
BBX 5 5 0 0
BITMAP
E8
48
D0
D0
78
ENDCHAR

STARTCHAR v
ENCODING 118
SWIDTH 384 0
DWIDTH 4 0
BBX 4 5 0 0
BITMAP
D0
D0
D0
60
40
ENDCHAR

STARTCHAR w
ENCODING 119
SWIDTH 672 0
DWIDTH 7 0
BBX 7 5 0 0
BITMAP
EA
6A
6C
7C
28
ENDCHAR

STARTCHAR x
ENCODING 120
SWIDTH 384 0
DWIDTH 4 0
BBX 6 5 0 0
BITMAP
6C
38
30
70
D8
ENDCHAR

STARTCHAR y
ENCODING 121
SWIDTH 480 0
DWIDTH 5 0
BBX 5 7 0 -2
BITMAP
E8
68
68
30
20
A0
C0
ENDCHAR

STARTCHAR z
ENCODING 122
SWIDTH 384 0
DWIDTH 4 0
BBX 5 5 0 0
BITMAP
78
D0
20
50
F0
ENDCHAR

STARTCHAR braceleft
ENCODING 123
SWIDTH 480 0
DWIDTH 5 0
BBX 6 9 0 -2
BITMAP
1C
30
30
60
C0
60
60
60
30
ENDCHAR

STARTCHAR bar
ENCODING 124
SWIDTH 288 0
DWIDTH 3 0
BBX 1 7 1 0
BITMAP
80
80
80
80
80
80
80
ENDCHAR

STARTCHAR braceright
ENCODING 125
SWIDTH 480 0
DWIDTH 5 0
BBX 6 9 0 -2
BITMAP
30
18
18
18
0C
18
30
30
E0
ENDCHAR

STARTCHAR asciitilde
ENCODING 126
SWIDTH 576 0
DWIDTH 6 0
BBX 6 2 0 2
BITMAP
6C
B8
ENDCHAR

STARTCHAR cent
ENCODING 162
SWIDTH 480 0
DWIDTH 5 0
BBX 5 7 0 -1
BITMAP
10
70
C8
C0
D0
60
40
ENDCHAR

STARTCHAR sterling
ENCODING 163
SWIDTH 480 0
DWIDTH 5 0
BBX 5 7 0 0
BITMAP
30
68
60
F0
60
C8
F0
ENDCHAR

STARTCHAR currency
ENCODING 164
SWIDTH 672 0
DWIDTH 7 0
BBX 5 5 1 1
BITMAP
D8
70
50
70
D8
ENDCHAR

STARTCHAR yen
ENCODING 165
SWIDTH 480 0
DWIDTH 5 0
BBX 6 7 0 0
BITMAP
EC
68
70
60
F0
60
F0
ENDCHAR

STARTCHAR brokenbar
ENCODING 166
SWIDTH 288 0
DWIDTH 3 0
BBX 1 7 1 0
BITMAP
80
80
80
00
80
80
80
ENDCHAR

STARTCHAR section
ENCODING 167
SWIDTH 480 0
DWIDTH 5 0
BBX 7 9 0 -2
BITMAP
1C
26
70
58
6C
34
18
C8
F0
ENDCHAR

STARTCHAR dieresis
ENCODING 168
SWIDTH 480 0
DWIDTH 5 0
BBX 5 1 1 6
BITMAP
D8
ENDCHAR

STARTCHAR copyright
ENCODING 169
SWIDTH 864 0
DWIDTH 9 0
BBX 7 7 1 0
BITMAP
38
44
9A
A2
9A
44
38
ENDCHAR

STARTCHAR multiply
ENCODING 170
SWIDTH 672 0
DWIDTH 7 0
BBX 6 5 0 0
BITMAP
CC
78
30
78
CC
ENDCHAR

STARTCHAR guillemotleft
ENCODING 171
SWIDTH 768 0
DWIDTH 8 0
BBX 7 5 1 0
BITMAP
36
6C
D8
D8
6C
ENDCHAR

STARTCHAR logicalnot
ENCODING 172
SWIDTH 672 0
DWIDTH 7 0
BBX 5 3 1 2
BITMAP
F8
08
08
ENDCHAR

STARTCHAR hyphen
ENCODING 173
SWIDTH 288 0
DWIDTH 3 0
BBX 3 1 0 2
BITMAP
E0
ENDCHAR

STARTCHAR registered
ENCODING 174
SWIDTH 864 0
DWIDTH 9 0
BBX 7 7 1 0
BITMAP
38
44
BA
B2
AA
44
38
ENDCHAR

STARTCHAR macron
ENCODING 175
SWIDTH 384 0
DWIDTH 4 0
BBX 3 1 1 6
BITMAP
E0
ENDCHAR

STARTCHAR degree
ENCODING 176
SWIDTH 384 0
DWIDTH 4 0
BBX 4 4 0 3
BITMAP
60
90
90
60
ENDCHAR

STARTCHAR plusminus
ENCODING 177
SWIDTH 672 0
DWIDTH 7 0
BBX 5 7 1 0
BITMAP
20
20
F8
20
20
00
F8
ENDCHAR

STARTCHAR twosuperior
ENCODING 178
SWIDTH 288 0
DWIDTH 3 0
BBX 3 4 0 3
BITMAP
60
20
40
E0
ENDCHAR

STARTCHAR threesuperior
ENCODING 179
SWIDTH 288 0
DWIDTH 3 0
BBX 3 4 0 3
BITMAP
E0
40
20
C0
ENDCHAR

STARTCHAR acute
ENCODING 180
SWIDTH 384 0
DWIDTH 4 0
BBX 3 2 1 5
BITMAP
60
80
ENDCHAR

STARTCHAR mu
ENCODING 181
SWIDTH 480 0
DWIDTH 5 0
BBX 6 8 0 -3
BITMAP
74
34
68
78
7C
C0
80
C0
ENDCHAR

STARTCHAR paragraph
ENCODING 182
SWIDTH 768 0
DWIDTH 8 0
BBX 7 10 1 -3
BITMAP
7E
F4
F4
E8
68
28
28
50
50
50
ENDCHAR

STARTCHAR periodcentered
ENCODING 183
SWIDTH 384 0
DWIDTH 4 0
BBX 2 2 1 2
BITMAP
C0
C0
ENDCHAR

STARTCHAR cedilla
ENCODING 184
SWIDTH 288 0
DWIDTH 3 0
BBX 4 3 0 -3
BITMAP
30
90
60
ENDCHAR

STARTCHAR onesuperior
ENCODING 185
SWIDTH 288 0
DWIDTH 3 0
BBX 3 4 0 3
BITMAP
20
E0
40
E0
ENDCHAR

STARTCHAR divide
ENCODING 186
SWIDTH 672 0
DWIDTH 7 0
BBX 5 5 1 0
BITMAP
20
00
F8
00
20
ENDCHAR

STARTCHAR guillemotright
ENCODING 187
SWIDTH 768 0
DWIDTH 8 0
BBX 7 5 0 0
BITMAP
6C
36
36
6C
D8
ENDCHAR

STARTCHAR onequarter
ENCODING 188
SWIDTH 672 0
DWIDTH 7 0
BBX 7 7 0 0
BITMAP
24
E8
48
F4
2C
3E
48
ENDCHAR

STARTCHAR onehalf
ENCODING 189
SWIDTH 672 0
DWIDTH 7 0
BBX 6 7 0 0
BITMAP
24
E8
48
FC
24
28
5C
ENDCHAR

STARTCHAR threequarters
ENCODING 190
SWIDTH 672 0
DWIDTH 7 0
BBX 7 7 0 0
BITMAP
E4
48
28
D4
2C
3E
48
ENDCHAR

STARTCHAR dblunderscore
ENCODING 223
SWIDTH 480 0
DWIDTH 5 0
BBX 5 7 0 -3
BITMAP
00
00
00
F8
00
F8
00
ENDCHAR

STARTCHAR aleph
ENCODING 224
SWIDTH 672 0
DWIDTH 7 0
BBX 7 7 0 0
BITMAP
00
34
36
76
58
D8
D8
ENDCHAR

STARTCHAR beth
ENCODING 225
SWIDTH 576 0
DWIDTH 6 0
BBX 6 7 0 0
BITMAP
00
3C
3C
08
10
F8
F8
ENDCHAR

STARTCHAR gimmel
ENCODING 226
SWIDTH 384 0
DWIDTH 4 0
BBX 4 7 0 0
BITMAP
00
30
30
10
30
D0
D0
ENDCHAR

STARTCHAR daleth
ENCODING 227
SWIDTH 672 0
DWIDTH 7 0
BBX 6 7 1 0
BITMAP
00
7C
7C
10
10
20
20
ENDCHAR

STARTCHAR he
ENCODING 228
SWIDTH 576 0
DWIDTH 6 0
BBX 5 7 1 0
BITMAP
00
78
78
08
48
90
90
ENDCHAR

STARTCHAR waw
ENCODING 229
SWIDTH 384 0
DWIDTH 4 0
BBX 3 7 1 -1
BITMAP
60
60
20
20
40
40
00
ENDCHAR

STARTCHAR zayin
ENCODING 230
SWIDTH 480 0
DWIDTH 5 0
BBX 3 7 2 -1
BITMAP
C0
E0
60
80
80
80
00
ENDCHAR

STARTCHAR het
ENCODING 231
SWIDTH 576 0
DWIDTH 6 0
BBX 5 7 1 0
BITMAP
00
78
78
48
48
90
90
ENDCHAR

STARTCHAR teth
ENCODING 232
SWIDTH 672 0
DWIDTH 7 0
BBX 6 7 1 0
BITMAP
00
5C
5C
54
44
78
70
ENDCHAR

STARTCHAR yod
ENCODING 233
SWIDTH 384 0
DWIDTH 4 0
BBX 3 6 1 0
BITMAP
60
60
20
40
00
00
ENDCHAR

STARTCHAR kaphfinal
ENCODING 234
SWIDTH 480 0
DWIDTH 5 0
BBX 5 9 0 -2
BITMAP
00
F8
F8
10
20
20
20
40
40
ENDCHAR

STARTCHAR kaph
ENCODING 235
SWIDTH 576 0
DWIDTH 6 0
BBX 6 7 0 0
BITMAP
00
38
3C
0C
04
F8
F0
ENDCHAR

STARTCHAR lamed
ENCODING 236
SWIDTH 576 0
DWIDTH 6 0
BBX 5 8 1 0
BITMAP
40
40
78
78
18
30
60
C0
ENDCHAR

STARTCHAR memfinal
ENCODING 237
SWIDTH 480 0
DWIDTH 5 0
BBX 5 7 0 0
BITMAP
00
78
78
48
48
F0
F0
ENDCHAR

STARTCHAR mem
ENCODING 238
SWIDTH 768 0
DWIDTH 8 0
BBX 7 7 1 -1
BITMAP
6C
7E
36
66
DC
DC
00
ENDCHAR

STARTCHAR nunfinal
ENCODING 239
SWIDTH 288 0
DWIDTH 3 0
BBX 3 9 0 -2
BITMAP
00
60
60
20
40
40
40
80
80
ENDCHAR

STARTCHAR nun
ENCODING 240
SWIDTH 480 0
DWIDTH 5 0
BBX 5 7 0 -1
BITMAP
18
18
08
10
F0
E0
00
ENDCHAR

STARTCHAR samekh
ENCODING 241
SWIDTH 768 0
DWIDTH 8 0
BBX 7 7 1 0
BITMAP
00
7E
7E
26
4C
78
70
ENDCHAR

STARTCHAR ayin
ENCODING 242
SWIDTH 576 0
DWIDTH 6 0
BBX 5 8 1 -1
BITMAP
00
58
58
58
58
70
F0
C0
ENDCHAR

STARTCHAR pefinal
ENCODING 243
SWIDTH 480 0
DWIDTH 5 0
BBX 5 9 0 -3
BITMAP
78
F8
C8
D8
10
10
20
20
00
ENDCHAR

STARTCHAR pe
ENCODING 244
SWIDTH 576 0
DWIDTH 6 0
BBX 5 7 1 -1
BITMAP
38
78
68
08
70
F0
00
ENDCHAR

STARTCHAR zadikfinal
ENCODING 245
SWIDTH 480 0
DWIDTH 5 0
BBX 5 9 0 -3
BITMAP
D8
D8
D8
50
60
60
60
60
00
ENDCHAR

STARTCHAR zadik
ENCODING 246
SWIDTH 576 0
DWIDTH 6 0
BBX 5 7 1 0
BITMAP
00
68
68
38
30
F0
F0
ENDCHAR

STARTCHAR kof
ENCODING 247
SWIDTH 672 0
DWIDTH 7 0
BBX 6 9 1 -2
BITMAP
00
7C
7C
0C
48
78
B0
80
80
ENDCHAR

STARTCHAR resh
ENCODING 248
SWIDTH 576 0
DWIDTH 6 0
BBX 5 7 1 0
BITMAP
00
78
78
08
08
10
10
ENDCHAR

STARTCHAR shin
ENCODING 249
SWIDTH 768 0
DWIDTH 8 0
BBX 7 7 1 0
BITMAP
00
56
56
66
4C
78
70
ENDCHAR

STARTCHAR taf
ENCODING 250
SWIDTH 576 0
DWIDTH 6 0
BBX 6 7 0 0
BITMAP
00
3C
3C
24
28
E8
E8
ENDCHAR
ENDFONT
